<mxfile host="app.diagrams.net" modified="2023-09-10T21:08:23.374Z" agent="Mozilla/5.0 (Windows NT 10.0; Win64; x64) AppleWebKit/537.36 (KHTML, like Gecko) Chrome/116.0.0.0 Safari/537.36" etag="JVZdiW04lpqkT7SElxzt" version="21.6.9" type="github">
  <diagram name="Page-1" id="1EjO1eXESMzDhLvaVOfK">
    <mxGraphModel dx="1434" dy="1882" grid="1" gridSize="10" guides="1" tooltips="1" connect="1" arrows="1" fold="1" page="1" pageScale="1" pageWidth="850" pageHeight="1100" math="0" shadow="0">
      <root>
        <mxCell id="0" />
        <mxCell id="1" parent="0" />
        <mxCell id="lhlHQX0Y4xDKaqIShGBV-6" value="" style="rounded=0;whiteSpace=wrap;html=1;" parent="1" vertex="1">
          <mxGeometry x="310" y="-70" width="250" height="780" as="geometry" />
        </mxCell>
        <mxCell id="lhlHQX0Y4xDKaqIShGBV-9" value="Redeem EcoPoints for Sustainable Products" style="ellipse;whiteSpace=wrap;html=1;" parent="1" vertex="1">
          <mxGeometry x="362.5" y="340" width="155" height="70" as="geometry" />
        </mxCell>
        <mxCell id="lhlHQX0Y4xDKaqIShGBV-11" value="Receive Reward" style="ellipse;whiteSpace=wrap;html=1;" parent="1" vertex="1">
          <mxGeometry x="370" y="500" width="140" height="70" as="geometry" />
        </mxCell>
        <mxCell id="lhlHQX0Y4xDKaqIShGBV-12" value="Offer Sustainable Products" style="ellipse;whiteSpace=wrap;html=1;" parent="1" vertex="1">
          <mxGeometry x="365" y="100" width="142.5" height="70" as="geometry" />
        </mxCell>
        <mxCell id="lhlHQX0Y4xDKaqIShGBV-13" value="Utilize System Data Analytics" style="ellipse;whiteSpace=wrap;html=1;" parent="1" vertex="1">
          <mxGeometry x="370" y="585" width="140" height="70" as="geometry" />
        </mxCell>
        <mxCell id="lhlHQX0Y4xDKaqIShGBV-14" value="Earn EcoPoints through Eco friendly actions" style="ellipse;whiteSpace=wrap;html=1;" parent="1" vertex="1">
          <mxGeometry x="362.5" y="10" width="150" height="70" as="geometry" />
        </mxCell>
        <mxCell id="lhlHQX0Y4xDKaqIShGBV-15" value="Manage EcoPoints" style="ellipse;whiteSpace=wrap;html=1;" parent="1" vertex="1">
          <mxGeometry x="367.5" y="180" width="140" height="70" as="geometry" />
        </mxCell>
        <mxCell id="lhlHQX0Y4xDKaqIShGBV-16" value="Generate Redemption Code" style="ellipse;whiteSpace=wrap;html=1;" parent="1" vertex="1">
          <mxGeometry x="370" y="260" width="140" height="70" as="geometry" />
        </mxCell>
        <mxCell id="lhlHQX0Y4xDKaqIShGBV-17" value="Validate Redemption Code" style="ellipse;whiteSpace=wrap;html=1;" parent="1" vertex="1">
          <mxGeometry x="370" y="420" width="140" height="70" as="geometry" />
        </mxCell>
        <mxCell id="lhlHQX0Y4xDKaqIShGBV-18" value="Business Partners" style="shape=umlActor;verticalLabelPosition=bottom;verticalAlign=top;html=1;" parent="1" vertex="1">
          <mxGeometry x="690" y="60" width="50" height="100" as="geometry" />
        </mxCell>
        <mxCell id="lhlHQX0Y4xDKaqIShGBV-19" value="User" style="shape=umlActor;verticalLabelPosition=bottom;verticalAlign=top;html=1;" parent="1" vertex="1">
          <mxGeometry x="180" y="60" width="50" height="105" as="geometry" />
        </mxCell>
        <mxCell id="lhlHQX0Y4xDKaqIShGBV-27" value="" style="endArrow=none;html=1;rounded=0;exitX=0.75;exitY=0.1;exitDx=0;exitDy=0;exitPerimeter=0;" parent="1" source="lhlHQX0Y4xDKaqIShGBV-19" edge="1">
          <mxGeometry relative="1" as="geometry">
            <mxPoint x="202.5" y="44.5" as="sourcePoint" />
            <mxPoint x="362.5" y="44.5" as="targetPoint" />
          </mxGeometry>
        </mxCell>
        <mxCell id="lhlHQX0Y4xDKaqIShGBV-28" value="" style="endArrow=none;html=1;rounded=0;exitX=0.947;exitY=0.286;exitDx=0;exitDy=0;exitPerimeter=0;" parent="1" source="lhlHQX0Y4xDKaqIShGBV-12" edge="1">
          <mxGeometry relative="1" as="geometry">
            <mxPoint x="550" y="110" as="sourcePoint" />
            <mxPoint x="710" y="110" as="targetPoint" />
          </mxGeometry>
        </mxCell>
        <mxCell id="lhlHQX0Y4xDKaqIShGBV-29" value="" style="endArrow=none;html=1;rounded=0;entryX=-0.004;entryY=0.371;entryDx=0;entryDy=0;entryPerimeter=0;exitX=0.62;exitY=0.4;exitDx=0;exitDy=0;exitPerimeter=0;" parent="1" source="lhlHQX0Y4xDKaqIShGBV-19" target="lhlHQX0Y4xDKaqIShGBV-15" edge="1">
          <mxGeometry relative="1" as="geometry">
            <mxPoint x="220" y="120" as="sourcePoint" />
            <mxPoint x="362.5" y="110" as="targetPoint" />
          </mxGeometry>
        </mxCell>
        <mxCell id="lhlHQX0Y4xDKaqIShGBV-30" value="" style="endArrow=none;html=1;rounded=0;exitX=0.28;exitY=0.952;exitDx=0;exitDy=0;exitPerimeter=0;entryX=0;entryY=0;entryDx=0;entryDy=0;" parent="1" source="lhlHQX0Y4xDKaqIShGBV-19" target="lhlHQX0Y4xDKaqIShGBV-11" edge="1">
          <mxGeometry relative="1" as="geometry">
            <mxPoint x="150" y="240" as="sourcePoint" />
            <mxPoint x="310" y="240" as="targetPoint" />
          </mxGeometry>
        </mxCell>
        <mxCell id="lhlHQX0Y4xDKaqIShGBV-31" value="" style="endArrow=none;html=1;rounded=0;entryX=0.66;entryY=0.91;entryDx=0;entryDy=0;entryPerimeter=0;exitX=0.957;exitY=0.343;exitDx=0;exitDy=0;exitPerimeter=0;" parent="1" source="lhlHQX0Y4xDKaqIShGBV-13" target="lhlHQX0Y4xDKaqIShGBV-18" edge="1">
          <mxGeometry relative="1" as="geometry">
            <mxPoint x="510" y="600" as="sourcePoint" />
            <mxPoint x="750" y="200" as="targetPoint" />
          </mxGeometry>
        </mxCell>
        <mxCell id="lhlHQX0Y4xDKaqIShGBV-32" value="" style="endArrow=none;html=1;rounded=0;exitX=0.971;exitY=0.371;exitDx=0;exitDy=0;exitPerimeter=0;" parent="1" source="lhlHQX0Y4xDKaqIShGBV-17" edge="1">
          <mxGeometry relative="1" as="geometry">
            <mxPoint x="560" y="140" as="sourcePoint" />
            <mxPoint x="720" y="140" as="targetPoint" />
          </mxGeometry>
        </mxCell>
        <mxCell id="lhlHQX0Y4xDKaqIShGBV-35" value="" style="endArrow=none;html=1;rounded=0;entryX=0.1;entryY=0.157;entryDx=0;entryDy=0;entryPerimeter=0;exitX=0.38;exitY=0.876;exitDx=0;exitDy=0;exitPerimeter=0;" parent="1" source="lhlHQX0Y4xDKaqIShGBV-19" target="lhlHQX0Y4xDKaqIShGBV-9" edge="1">
          <mxGeometry relative="1" as="geometry">
            <mxPoint x="170" y="270" as="sourcePoint" />
            <mxPoint x="510" y="360" as="targetPoint" />
          </mxGeometry>
        </mxCell>
        <mxCell id="lhlHQX0Y4xDKaqIShGBV-36" value="" style="endArrow=none;html=1;rounded=0;entryX=0.5;entryY=0.5;entryDx=0;entryDy=0;entryPerimeter=0;exitX=1;exitY=0;exitDx=0;exitDy=0;" parent="1" source="lhlHQX0Y4xDKaqIShGBV-9" target="lhlHQX0Y4xDKaqIShGBV-18" edge="1">
          <mxGeometry relative="1" as="geometry">
            <mxPoint x="470" y="250" as="sourcePoint" />
            <mxPoint x="630" y="250" as="targetPoint" />
          </mxGeometry>
        </mxCell>
        <mxCell id="lhlHQX0Y4xDKaqIShGBV-37" value="" style="endArrow=none;html=1;rounded=0;exitX=1;exitY=0;exitDx=0;exitDy=0;" parent="1" source="lhlHQX0Y4xDKaqIShGBV-11" edge="1">
          <mxGeometry relative="1" as="geometry">
            <mxPoint x="570" y="150" as="sourcePoint" />
            <mxPoint x="730" y="150" as="targetPoint" />
          </mxGeometry>
        </mxCell>
        <mxCell id="lhlHQX0Y4xDKaqIShGBV-38" value="EcoPoints" style="text;strokeColor=none;fillColor=none;html=1;fontSize=24;fontStyle=1;verticalAlign=middle;align=center;" parent="1" vertex="1">
          <mxGeometry x="385" y="-60" width="100" height="40" as="geometry" />
        </mxCell>
      </root>
    </mxGraphModel>
  </diagram>
</mxfile>
